<?xml version="1.0" encoding="UTF-8"?>
<!DOCTYPE svg PUBLIC "-//W3C//DTD SVG 1.1//EN" "http://www.w3.org/Graphics/SVG/1.1/DTD/svg11.dtd">
<!-- Creator: CorelDRAW -->
<svg xmlns="http://www.w3.org/2000/svg" xml:space="preserve" width="6.82666in" height="6.82666in" style="shape-rendering:geometricPrecision; text-rendering:geometricPrecision; image-rendering:optimizeQuality; fill-rule:evenodd; clip-rule:evenodd"
viewBox="0 0 6.82666 6.82666"
 xmlns:xlink="http://www.w3.org/1999/xlink">
 <defs>
  <style type="text/css">
   <![CDATA[
    .fil2 {fill:none}
    .fil5 {fill:#212121}
    .fil8 {fill:#293439}
    .fil10 {fill:#424242}
    .fil16 {fill:#5D4037}
    .fil14 {fill:#757575}
    .fil12 {fill:#A61E1E}
    .fil13 {fill:#C62828}
    .fil9 {fill:#C7B7B7}
    .fil1 {fill:#D08F25}
    .fil3 {fill:#DBC0B2}
    .fil7 {fill:#DFC4B6}
    .fil15 {fill:#E4B7A0}
    .fil6 {fill:#ECCEBE}
    .fil0 {fill:#F9A825}
    .fil4 {fill:#FFDDCC}
    .fil11 {fill:white}
    .fil17 {fill:#3E2723;fill-rule:nonzero}
    .fil18 {fill:#EEEEEE;fill-rule:nonzero}
    .fil19 {fill:#FAFAFA;fill-rule:nonzero}
   ]]>
  </style>
   <clipPath id="id0">
    <path d="M3.41333 0c1.88513,0 3.41333,1.5282 3.41333,3.41333 0,1.88513 -1.5282,3.41333 -3.41333,3.41333 -1.88513,0 -3.41333,-1.5282 -3.41333,-3.41333 0,-1.88513 1.5282,-3.41333 3.41333,-3.41333z"/>
   </clipPath>
 </defs>
 <g id="Layer_x0020_1">
  <metadata id="CorelCorpID_0Corel-Layer"/>
  <path class="fil0" d="M3.41333 0c1.88513,0 3.41333,1.5282 3.41333,3.41333 0,1.88513 -1.5282,3.41333 -3.41333,3.41333 -1.88513,0 -3.41333,-1.5282 -3.41333,-3.41333 0,-1.88513 1.5282,-3.41333 3.41333,-3.41333z"/>
  <g style="clip-path:url(#id0)">
   <g id="_435561160">
    <g>
     <polygon id="_4355655761" class="fil1" points="3.96056,1.77387 7.74683,5.56014 7.76132,5.57708 7.7752,5.5947 7.78843,5.61302 7.801,5.63204 7.81288,5.65174 7.82406,5.67215 7.83451,5.69324 7.84422,5.71504 7.85316,5.73752 7.86131,5.7607 7.86865,5.78458 7.87517,5.80916 7.88084,5.83444 7.88564,5.86041 7.88955,5.88708 7.89255,5.91445 7.89462,5.94252 7.89574,5.97129 7.89588,6.00076 7.89504,6.03093 7.89318,6.0618 7.89029,6.09337 7.88635,6.12565 7.88133,6.15863 7.87522,6.19231 4.08895,2.40604 4.09506,2.37235 4.10008,2.33937 4.10402,2.3071 4.10691,2.27553 4.10877,2.24465 4.10961,2.21448 4.10947,2.18502 4.10835,2.15624 4.10628,2.12818 4.10328,2.10081 4.09937,2.07414 4.09457,2.04817 4.0889,2.02289 4.08239,1.99831 4.07504,1.97443 4.06689,1.95125 4.05795,1.92876 4.04824,1.90697 4.03779,1.88587 4.02661,1.86547 4.01473,1.84577 4.00217,1.82675 3.98893,1.80843 3.97506,1.79081 "/>
     <polygon id="_435565600" class="fil1" points="4.16296,2.41696 7.94923,6.20324 7.95261,6.20706 7.95578,6.21119 7.95874,6.21562 7.96148,6.22033 7.96402,6.22532 7.96634,6.23057 7.96844,6.23607 7.97031,6.24181 7.97197,6.24778 7.9734,6.25396 7.97459,6.26034 7.97557,6.26692 7.9763,6.27368 7.9768,6.2806 7.97706,6.28769 7.97708,6.29491 7.97686,6.30228 7.97639,6.30976 7.97568,6.31736 7.97471,6.32506 7.97349,6.33284 7.97202,6.3407 7.97029,6.34862 7.9683,6.35659 7.96604,6.36461 7.96352,6.37266 4.17725,2.58639 4.17977,2.57834 4.18203,2.57032 4.18402,2.56235 4.18575,2.55443 4.18722,2.54657 4.18844,2.53878 4.18941,2.53109 4.19013,2.52349 4.19059,2.51601 4.19081,2.50864 4.1908,2.50141 4.19053,2.49433 4.19003,2.48741 4.1893,2.48065 4.18833,2.47407 4.18713,2.46769 4.1857,2.4615 4.18405,2.45554 4.18217,2.4498 4.18007,2.4443 4.17775,2.43905 4.17522,2.43406 4.17247,2.42935 4.16951,2.42492 4.16634,2.42079 "/>
     <polygon id="_435568240" class="fil1" points="4.17725,2.58639 7.96352,6.37266 7.96077,6.38063 7.95781,6.38842 7.95468,6.39602 7.95137,6.40342 7.94788,6.41062 7.94424,6.41761 7.94044,6.42437 7.9365,6.43091 7.93243,6.4372 7.92824,6.44326 7.92393,6.44907 7.9195,6.45461 7.91499,6.45988 7.91038,6.46488 7.90569,6.46959 7.90093,6.47402 7.89611,6.47814 7.89123,6.48196 7.88631,6.48546 7.88136,6.48863 7.87637,6.49148 7.87137,6.49398 7.86636,6.49614 7.86135,6.49794 7.85634,6.49938 7.85135,6.50045 7.84639,6.50114 7.84146,6.50144 7.83658,6.50135 7.83175,6.50085 7.82698,6.49995 7.82229,6.49863 4.03602,2.71235 4.04072,2.71368 4.04548,2.71458 4.05031,2.71508 4.0552,2.71517 4.06013,2.71487 4.06509,2.71418 4.07007,2.71311 4.07508,2.71167 4.08009,2.70987 4.0851,2.70771 4.09011,2.7052 4.09509,2.70236 4.10005,2.69919 4.10496,2.69569 4.10984,2.69187 4.11467,2.68775 4.11943,2.68332 4.12411,2.67861 4.12872,2.67361 4.13324,2.66833 4.13766,2.6628 4.14197,2.65699 4.14617,2.65093 4.15024,2.64463 4.15417,2.6381 4.15797,2.63133 4.16161,2.62435 4.1651,2.61715 4.16841,2.60974 4.17155,2.60215 4.1745,2.59436 "/>
     <polygon id="_435567832" class="fil1" points="4.03602,2.71235 7.82229,6.49863 7.82018,6.49789 7.81811,6.49707 7.81609,6.49617 7.8141,6.49519 7.81215,6.49413 7.81025,6.493 7.80838,6.4918 7.80656,6.49052 4.02029,2.70425 4.02211,2.70553 4.02398,2.70673 4.02589,2.70786 4.02783,2.70892 4.02982,2.70989 4.03185,2.7108 4.03391,2.71161 "/>
     <polygon id="_435568000" class="fil1" points="4.02029,2.70425 7.80656,6.49052 7.80436,6.49925 7.80215,6.50782 7.79994,6.51622 7.79771,6.52446 7.79548,6.53253 7.79326,6.54042 7.79103,6.54813 7.78881,6.55566 7.78659,6.563 7.78439,6.57015 7.7822,6.57711 7.78002,6.58386 7.77786,6.59042 7.77573,6.59676 7.77361,6.6029 7.77153,6.60882 7.76948,6.61453 7.76746,6.62001 7.76547,6.62526 7.76352,6.63029 7.76161,6.63508 7.75975,6.63964 7.75793,6.64395 7.75616,6.64802 7.75444,6.65183 7.75278,6.6554 7.75118,6.6587 7.74964,6.66175 7.74816,6.66453 7.74674,6.66704 7.7454,6.66928 7.74412,6.67124 3.95785,2.88496 3.95913,2.883 3.96047,2.88077 3.96189,2.87826 3.96337,2.87548 3.96491,2.87243 3.96652,2.86913 3.96818,2.86556 3.96989,2.86174 3.97166,2.85768 3.97348,2.85337 3.97534,2.84881 3.97725,2.84402 3.9792,2.83899 3.98119,2.83374 3.98321,2.82826 3.98526,2.82255 3.98735,2.81663 3.98946,2.81049 3.99159,2.80415 3.99375,2.79759 3.99593,2.79083 3.99812,2.78388 4.00032,2.77673 4.00254,2.76939 4.00476,2.76186 4.00699,2.75415 4.00922,2.74626 4.01144,2.73819 4.01367,2.72995 4.01589,2.72155 4.01809,2.71298 "/>
     <polygon id="_435567712" class="fil1" points="2.83966,1.88959 6.62593,5.67587 6.62255,5.67452 6.61873,5.6724 6.61451,5.66953 6.60992,5.66594 6.60498,5.66169 6.59974,5.6568 6.59422,5.6513 6.58845,5.64524 2.80219,1.85897 2.80795,1.86503 2.81347,1.87052 2.81872,1.87541 2.82365,1.87967 2.82824,1.88326 2.83246,1.88613 2.83628,1.88825 "/>
     <polygon id="_435567760" class="fil1" points="3.69546,3.12168 7.48173,6.90795 7.48173,7.0236 3.69546,3.23733 "/>
     <polygon id="_435568576" class="fil1" points="3.69546,3.23733 7.48173,7.0236 7.50117,7.11788 3.71491,3.33161 "/>
     <polygon id="_435569104" class="fil1" points="3.8424,3.38829 7.62867,7.17456 7.6293,7.17563 3.84303,3.38935 "/>
     <polygon id="_435569128" class="fil1" points="3.95785,2.88496 7.74412,6.67124 7.7405,6.6764 7.73646,6.68182 7.73203,6.6875 7.7272,6.69341 7.722,6.69956 7.71642,6.70592 7.7105,6.71249 7.70423,6.71925 7.69763,6.72619 7.69071,6.7333 7.68348,6.74056 7.67596,6.74797 7.66816,6.75551 7.66008,6.76317 7.65174,6.77094 7.64316,6.7788 7.63434,6.78675 7.6253,6.79478 7.61604,6.80286 7.60658,6.81099 7.59693,6.81915 7.58711,6.82735 7.57712,6.83555 7.56698,6.84375 7.55669,6.85194 7.54628,6.86011 7.53575,6.86824 7.52511,6.87633 7.51438,6.88435 7.50356,6.89231 7.49268,6.90018 7.48173,6.90795 3.69546,3.12168 3.70641,3.11391 3.7173,3.10604 3.72811,3.09808 3.73884,3.09006 3.74948,3.08197 3.76001,3.07384 3.77043,3.06567 3.78071,3.05748 3.79085,3.04928 3.80084,3.04107 3.81067,3.03288 3.82031,3.02472 3.82977,3.01659 3.83903,3.0085 3.84807,3.00048 3.85689,2.99253 3.86548,2.98467 3.87381,2.9769 3.88189,2.96924 3.88969,2.9617 3.89722,2.95429 3.90444,2.94702 3.91136,2.93992 3.91796,2.93298 3.92423,2.92622 3.93015,2.91965 3.93573,2.91329 3.94093,2.90714 3.94576,2.90122 3.9502,2.89555 3.95423,2.89013 "/>
     <polygon id="_435568504" class="fil1" points="3.1312,3.12169 6.91746,6.90796 6.90652,6.90019 6.89563,6.89231 6.88482,6.88436 6.87409,6.87634 6.86344,6.86825 6.85291,6.86012 6.8425,6.85195 6.83221,6.84376 6.82207,6.83556 6.81208,6.82735 6.80226,6.81916 6.79261,6.81099 6.78315,6.80286 6.77389,6.79478 6.76484,6.78676 6.75602,6.77881 6.74744,6.77094 6.7391,6.76317 6.73102,6.75551 6.72322,6.74797 6.71569,6.74056 2.92943,2.95429 2.93695,2.9617 2.94476,2.96924 2.95283,2.9769 2.96117,2.98467 2.96975,2.99254 2.97857,3.00048 2.98762,3.00851 2.99688,3.01659 3.00634,3.02472 3.01599,3.03289 3.02581,3.04108 3.0358,3.04928 3.04594,3.05749 3.05623,3.06568 3.06665,3.07385 3.07718,3.08198 3.08782,3.09007 3.09855,3.09809 3.10937,3.10604 3.12025,3.11391 "/>
     <polygon id="_435569008" class="fil1" points="4.19223,4.50697 7.9785,8.29324 7.93346,8.29324 4.14719,4.50697 "/>
     <polygon id="_435568672" class="fil1" points="4.14719,4.50697 7.93346,8.29324 7.56872,8.29324 3.78245,4.50697 "/>
     <polygon id="_435568912" class="fil1" points="3.78245,4.50697 7.56872,8.29324 7.4917,8.29324 3.70543,4.50697 "/>
     <polygon id="_435569920" class="fil1" points="3.70543,4.50697 7.4917,8.29324 7.35797,8.29324 3.5717,4.50697 "/>
     <polygon id="_435569944" class="fil1" points="3.5717,4.50697 7.35797,8.29324 7.34988,8.29324 3.56361,4.50697 "/>
     <polygon id="_435569440" class="fil1" points="3.56361,4.50697 7.34988,8.29324 7.1996,8.29324 3.41333,4.50697 "/>
     <polygon id="_435569896" class="fil1" points="3.41333,4.50697 7.1996,8.29324 7.04931,8.29324 3.26305,4.50697 "/>
     <polygon id="_435569464" class="fil1" points="3.26305,4.50697 7.04931,8.29324 7.04002,8.29324 3.25376,4.50697 "/>
     <polygon id="_435569680" class="fil1" points="3.25376,4.50697 7.04002,8.29324 6.95715,8.29324 3.17089,4.50697 "/>
     <polygon id="_435542944" class="fil1" points="3.17089,4.50697 6.95715,8.29324 6.82928,8.29324 3.04301,4.50697 "/>
     <polygon id="_435544744" class="fil1" points="3.04301,4.50697 6.82928,8.29324 6.46572,8.29324 2.67945,4.50697 "/>
     <polygon id="_435545344" class="fil1" points="2.67945,4.50697 6.46572,8.29324 6.4207,8.29324 2.63443,4.50697 "/>
     <polygon id="_435544720" class="fil1" points="2.63443,4.50697 6.4207,8.29324 5.88494,8.29324 2.09867,4.50697 "/>
     <polygon id="_435544840" class="fil1" points="2.80596,2.70265 6.59223,6.48893 6.59019,6.49048 6.58809,6.49195 6.58594,6.49332 6.58374,6.49459 6.58148,6.49576 6.57917,6.49683 6.5768,6.49779 6.57439,6.49865 2.78812,2.71238 2.79054,2.71152 2.7929,2.71056 2.79521,2.70949 2.79747,2.70832 2.79967,2.70705 2.80182,2.70568 2.80392,2.70421 "/>
     <polygon id="_435544960" class="fil1" points="2.78812,2.71238 6.57439,6.49865 6.56969,6.49997 6.56493,6.50087 6.5601,6.50137 6.55522,6.50146 6.55029,6.50115 6.54533,6.50046 6.54035,6.49939 6.53534,6.49795 6.53033,6.49615 6.52532,6.49399 6.52032,6.49148 6.51533,6.48864 6.51038,6.48546 6.50546,6.48196 6.50059,6.47815 6.49576,6.47402 6.491,6.4696 2.70474,2.68333 2.7095,2.68775 2.71432,2.69187 2.71919,2.69569 2.72411,2.69919 2.72907,2.70237 2.73405,2.70521 2.73906,2.70772 2.74406,2.70988 2.74907,2.71168 2.75408,2.71312 2.75906,2.71419 2.76402,2.71488 2.76895,2.71519 2.77383,2.71509 2.77866,2.7146 2.78342,2.7137 "/>
     <polygon id="_435553144" class="fil1" points="4.72799,4.50697 8.51426,8.29324 7.9785,8.29324 4.19223,4.50697 "/>
     <polygon id="_435553264" class="fil1" points="4.51027,3.77496 8.29654,7.56124 8.30608,7.57223 8.31537,7.58461 8.32441,7.59833 8.3332,7.61332 8.34177,7.62953 8.35012,7.6469 8.35825,7.66537 8.36618,7.6849 8.37392,7.70541 8.38147,7.72687 8.38885,7.7492 8.39607,7.77235 8.40313,7.79627 8.41004,7.8209 8.41681,7.84618 8.42346,7.87206 8.42999,7.89848 8.43641,7.92537 8.44273,7.9527 8.44896,7.9804 8.45511,8.00841 8.46119,8.03667 8.46721,8.06513 8.47318,8.09374 8.4791,8.12243 8.48499,8.15116 8.49085,8.17985 8.4967,8.20846 8.50255,8.23694 8.50839,8.26522 8.51426,8.29324 4.72799,4.50697 4.72213,4.47894 4.71628,4.45067 4.71043,4.42219 4.70459,4.39358 4.69872,4.36489 4.69283,4.33616 4.68691,4.30747 4.68094,4.27886 4.67493,4.2504 4.66885,4.22213 4.6627,4.19413 4.65646,4.16643 4.65014,4.1391 4.64372,4.1122 4.63719,4.08579 4.63054,4.05991 4.62377,4.03463 4.61686,4.01 4.6098,3.98608 4.60259,3.96293 4.5952,3.94059 4.58765,3.91914 4.57991,3.89863 4.57198,3.8791 4.56385,3.86063 4.5555,3.84326 4.54694,3.82705 4.53814,3.81206 4.5291,3.79834 4.51981,3.78596 "/>
     <polygon id="_435553888" class="fil1" points="4.82796,4.54887 8.61423,8.33514 8.63576,8.36626 4.84949,4.57999 "/>
     <polygon id="_435554584" class="fil1" points="4.84949,4.57999 8.63576,8.36626 9.06409,8.98554 5.27783,5.19927 "/>
     <polygon id="_435554536" class="fil1" points="5.27817,5.19927 9.06443,8.98554 9.06443,9.06627 5.27817,5.28 "/>
     <polygon id="_435554152" class="fil1" points="5.27817,5.28 9.06443,9.06627 5.33477,9.06627 1.5485,5.28 "/>
    </g>
    <path id="_435560848" class="fil1" d="M3.84333 1.67467c0.197571,0.125417 0.316713,0.368343 0.245622,0.731366 0.0168543,-0.00796063 0.033878,-0.0100394 0.0495591,-0.00487008 0.0496969,0.0163504 0.0670354,0.0992913 0.0387402,0.18522 -0.0282953,0.0859567 -0.0915276,0.14235 -0.141232,0.125969 -0.00566929,-0.00186614 -0.0109173,-0.00459843 -0.0157283,-0.00810236 -0.0233583,0.0939409 -0.0492362,0.161287 -0.062437,0.180713 -0.0363858,0.0535866 -0.145382,0.154354 -0.26239,0.236713l0 0.115654 0.0194409 0.0942795c0.017,0.00751575 0.0336299,0.0149252 0.0499016,0.0222244l0.000114173 5.11811e-005 0.0774803 0.0344055 0.000629921 0.00106299c0.452823,0.208224 0.595335,0.321098 0.657421,0.376059 0.106157,0.0939567 0.164909,0.444185 0.227535,0.741555l-0.535756 0 -0.0450433 0 -0.36474 0 -0.0770157 0 -0.133728 0 -0.00809449 0 -0.15028 0 -0.150283 0 -0.00929134 0 -0.0828701 0 -0.127874 0 -0.363563 0 -0.0450197 0 -0.53576 0c0.062626,-0.29737 0.121354,-0.647598 0.227539,-0.741555 0.0630276,-0.0557953 0.214283,-0.174209 0.684504,-0.389016l0.000799213 -0.000358268c0.0303307,-0.0138504 0.0619843,-0.0281024 0.0950197,-0.0427835l0.0246654 -0.0959252 0 -0.115646c-0.117016,-0.0823583 -0.226028,-0.183134 -0.262413,-0.23672 -0.0132717,-0.0195354 -0.0393661,-0.0875394 -0.0628228,-0.182311 -0.00537008,0.0042874 -0.0113307,0.00757874 -0.0178425,0.00972441 -0.0496772,0.0163583 -0.112913,-0.0400354 -0.141205,-0.125992 -0.0283189,-0.0859291 -0.0109567,-0.16887 0.038748,-0.18522 0.0235394,-0.00776378 0.050126,0.000814961 0.0745945,0.0211378 -0.0278268,-0.194835 -0.0341457,-0.395106 0.0794016,-0.532709 -0.0335787,-0.0100039 -0.147319,-0.160031 -0.165748,-0.249449 0.165469,0.138614 0.291957,0.0112362 0.491063,-0.0491181 0.0883819,-0.0267913 0.184228,-0.047815 0.288165,-0.0438898 0.119933,0.00453937 0.250291,0.0387323 0.390193,0.127531zm-1.88748 2.8742l2.83321 0 0.0388976 0 0.0215276 0.031122 0.428339 0.61928 0.000338583 0 0 0.0807244 -3.72967 0 0 -0.0807244 0.0644724 -0.1025 0.342878 -0.547902z"/>
   </g>
  </g>
  <path class="fil2" d="M3.41333 0c1.88513,0 3.41333,1.5282 3.41333,3.41333 0,1.88513 -1.5282,3.41333 -3.41333,3.41333 -1.88513,0 -3.41333,-1.5282 -3.41333,-3.41333 0,-1.88513 1.5282,-3.41333 3.41333,-3.41333z"/>
  <path class="fil3" d="M2.68566 2.40117c0.0496772,-0.0163819 0.112909,0.0400079 0.141205,0.125965 0.0282953,0.0859331 0.0109567,0.16887 -0.038748,0.185248 -0.0496772,0.0163583 -0.112913,-0.0400354 -0.141205,-0.125992 -0.0283228,-0.0859291 -0.0109567,-0.16887 0.038748,-0.18522z"/>
  <path class="fil3" d="M4.13851 2.40117c-0.0497047,-0.0163819 -0.112937,0.0400354 -0.141232,0.125965 -0.0282953,0.0859331 -0.0109528,0.16887 0.0387402,0.185224 0.0497047,0.0163819 0.112941,-0.0400118 0.141232,-0.125969 0.0282953,-0.0859291 0.0109567,-0.16887 -0.0387402,-0.18522z"/>
  <path class="fil4" d="M3.1505 3.31389c-0.581087,0.254732 -0.755402,0.390539 -0.824295,0.451528 -0.106185,0.0939606 -0.164913,0.444185 -0.227539,0.741555l1.31466 0 1.31466 0c-0.062622,-0.29737 -0.121378,-0.647594 -0.227535,-0.741555 -0.0688976,-0.0609882 -0.236823,-0.193291 -0.817909,-0.448055l-0.532039 -0.00347244z"/>
  <path class="fil5" d="M3.15048 3.31389c-0.581059,0.254732 -0.755374,0.390539 -0.824268,0.451528 -0.106185,0.0939606 -0.164913,0.444185 -0.227539,0.741555l1.31466 0 1.31463 0c-0.0626181,-0.29737 -0.121354,-0.647594 -0.227531,-0.741555 -0.068878,-0.0609882 -0.236803,-0.193291 -0.81789,-0.448055l-0.532067 -0.00347244z"/>
  <path class="fil6" d="M3.69546 2.80609l0 0.644102c-0.155185,0.190059 -0.40911,0.183476 -0.564268,0l0 -0.644102c0,-0.347799 0.564268,-0.347799 0.564268,0z"/>
  <path class="fil7" d="M3.69546 2.80609l0 0.43124c-0.106768,0.0778228 -0.209673,0.121421 -0.282134,0.121421 -0.0724646,0 -0.175386,-0.0435984 -0.282134,-0.121421l0 -0.43124c0,-0.347799 0.564268,-0.347799 0.564268,0z"/>
  <path class="fil6" d="M3.41333 1.6497c-0.946945,0 -0.606406,1.14419 -0.544547,1.23526 0.0682008,0.100449 0.391555,0.366669 0.544547,0.366669 0.152992,0 0.476323,-0.26622 0.544524,-0.366669 0.0618819,-0.0910709 0.402421,-1.23526 -0.544524,-1.23526z"/>
  <path class="fil8" d="M2.9805 2.03261c-0.0549291,0.300091 -0.192484,0.272079 -0.181575,0.624228 -0.0406772,-0.252654 -0.119854,-0.572626 0.0407362,-0.767244 -0.0335787,-0.0100039 -0.147319,-0.160031 -0.165744,-0.249449 0.165465,0.138614 0.291953,0.0112362 0.491059,-0.0491181 0.0883819,-0.0267913 0.184228,-0.0478189 0.288165,-0.0438898 0.119933,0.00453937 0.250291,0.0387323 0.390189,0.127531 0.232193,0.147394 0.356059,0.457075 0.190138,0.93326 -0.0251969,-0.167803 -0.0220551,-0.29637 -0.1375,-0.410417 -0.120528,-0.119071 -0.392311,0.204394 -0.915469,-0.164902z"/>
  <path class="fil9" d="M3.4148 3.59027c0,0 -0.393736,0.094 -0.393736,0.117831 0,0.0238346 0.149823,0.79887 0.149823,0.79887l0.534551 0 0.0612677 -0.795453 -0.351906 -0.121248z"/>
  <polygon class="fil10" points="3.1312,3.32237 3.1312,3.45019 3.25376,4.50697 3.04301,4.50697 2.81117,4.03629 3.03247,3.88876 2.76201,3.76231 3.01071,3.3764 "/>
  <polygon class="fil10" points="3.69546,3.32304 3.69548,3.45019 3.5717,4.50697 3.78245,4.50697 4.01426,4.03629 3.79298,3.88876 4.06344,3.76231 3.8424,3.38829 "/>
  <polygon class="fil11" points="3.1312,3.23733 3.10653,3.33326 3.17556,3.83289 3.4148,3.59029 "/>
  <path class="fil12" d="M3.292 3.72096l0.0683307 0.105854c0.035315,0 0.0706732,0 0.105988,0l0.0683504 -0.105854 -0.11987 -0.130693 -0.122799 0.130693z"/>
  <polygon class="fil13" points="3.36033,3.82681 3.26305,4.50697 3.56361,4.50697 3.46633,3.82681 "/>
  <polygon class="fil11" points="3.69546,3.23733 3.71493,3.3317 3.65007,3.83788 3.4148,3.59029 "/>
  <path class="fil14" d="M2.63443 4.50697l0.0450157 0c-0.00201181,-0.200201 -0.00201181,-0.344492 -0.00201181,-0.344492 0,0 -0.0199409,0.149953 -0.0430039,0.344492z"/>
  <path class="fil14" d="M4.19223 4.50697l-0.0450433 0c0.00201181,-0.200201 0.00201181,-0.344492 0.00201181,-0.344492 0,0 0.0199409,0.149953 0.0430315,0.344492z"/>
  <path class="fil15" d="M3.12654 2.84745c0.190453,0.0681575 0.411516,0.0571063 0.573587,0 -0.0528858,0.243661 -0.472453,0.249579 -0.573587,0z"/>
  <rect class="fil16" x="1.5485" y="5.19927" width="3.72967" height="0.0807262"/>
  <polygon class="fil17" points="4.78906,4.54887 4.82796,4.54887 4.84949,4.57999 5.27795,5.19945 1.67509,5.19945 1.5485,5.19927 1.61297,5.09677 1.95585,4.54887 "/>
  <polygon class="fil18" points="3.70255,4.60927 3.8545,4.97451 2.97217,4.97441 3.13265,4.60927 "/>
  <polygon class="fil19" points="3.63769,4.62639 3.67305,5.00526 2.92434,4.95067 3.20404,4.59308 "/>
 </g>
</svg>
